<svg xmlns="http://www.w3.org/2000/svg"  viewBox="0 0 30 30" width="60px" height="60px"><path d="M 4.984375 3.9863281 A 1.0001 1.0001 0 0 0 4 5 L 4 25 A 1.0001 1.0001 0 1 0 6 25 L 6 5 A 1.0001 1.0001 0 0 0 4.984375 3.9863281 z M 8.984375 3.9863281 A 1.0001 1.0001 0 0 0 8 5 L 8 25 A 1.0001 1.0001 0 1 0 10 25 L 10 5 A 1.0001 1.0001 0 0 0 8.984375 3.9863281 z M 24.984375 3.9863281 A 1.0001 1.0001 0 0 0 24 5 L 24 25 A 1.0001 1.0001 0 1 0 26 25 L 26 5 A 1.0001 1.0001 0 0 0 24.984375 3.9863281 z M 13 4 C 12.448 4 12 4.448 12 5 L 12 25 C 12 25.552 12.448 26 13 26 L 16 26 C 16.552 26 17 25.552 17 25 L 17 5 C 17 4.448 16.552 4 16 4 L 13 4 z M 20 4 C 19.448 4 19 4.448 19 5 L 19 25 C 19 25.552 19.448 26 20 26 L 21 26 C 21.552 26 22 25.552 22 25 L 22 5 C 22 4.448 21.552 4 21 4 L 20 4 z"/></svg>