<svg id="visual" viewBox="0 0 100 600" width="100" height="600" xmlns="http://www.w3.org/2000/svg" xmlns:xlink="http://www.w3.org/1999/xlink" version="1.1"><path d="M61 0L59.5 14.3C58 28.7 55 57.3 54.7 85.8C54.3 114.3 56.7 142.7 59.8 171.2C63 199.7 67 228.3 65.5 257C64 285.7 57 314.3 57.2 343C57.3 371.7 64.7 400.3 66.5 428.8C68.3 457.3 64.7 485.7 63 514.2C61.3 542.7 61.7 571.3 61.8 585.7L62 600L0 600L0 585.7C0 571.3 0 542.7 0 514.2C0 485.7 0 457.3 0 428.8C0 400.3 0 371.7 0 343C0 314.3 0 285.7 0 257C0 228.3 0 199.7 0 171.2C0 142.7 0 114.3 0 85.8C0 57.3 0 28.7 0 14.3L0 0Z" fill="#f6e049"></path><path d="M39 0L38.5 14.3C38 28.7 37 57.3 36.8 85.8C36.7 114.3 37.3 142.7 36.7 171.2C36 199.7 34 228.3 32.5 257C31 285.7 30 314.3 29.2 343C28.3 371.7 27.7 400.3 27.2 428.8C26.7 457.3 26.3 485.7 29.8 514.2C33.3 542.7 40.7 571.3 44.3 585.7L48 600L0 600L0 585.7C0 571.3 0 542.7 0 514.2C0 485.7 0 457.3 0 428.8C0 400.3 0 371.7 0 343C0 314.3 0 285.7 0 257C0 228.3 0 199.7 0 171.2C0 142.7 0 114.3 0 85.8C0 57.3 0 28.7 0 14.3L0 0Z" fill="#aac6fc"></path></svg>