<svg id="visual" viewBox="0 0 100 600" width="100" height="600" xmlns="http://www.w3.org/2000/svg" xmlns:xlink="http://www.w3.org/1999/xlink" version="1.1"><path d="M51 600L47.3 580C43.7 560 36.3 520 38.2 480C40 440 51 400 50 360C49 320 36 280 31.3 240C26.7 200 30.3 160 33.3 120C36.3 80 38.7 40 39.8 20L41 0L100 0L100 20C100 40 100 80 100 120C100 160 100 200 100 240C100 280 100 320 100 360C100 400 100 440 100 480C100 520 100 560 100 580L100 600Z" fill="#f6e049"></path><path d="M63 600L66.5 580C70 560 77 520 79.7 480C82.3 440 80.7 400 76.7 360C72.7 320 66.3 280 61.7 240C57 200 54 160 54.5 120C55 80 59 40 61 20L63 0L100 0L100 20C100 40 100 80 100 120C100 160 100 200 100 240C100 280 100 320 100 360C100 400 100 440 100 480C100 520 100 560 100 580L100 600Z" fill="#aac6fc"></path></svg>