<svg id="visual" viewBox="0 0 100 600" width="100" height="600" xmlns="http://www.w3.org/2000/svg" xmlns:xlink="http://www.w3.org/1999/xlink" version="1.1"><path d="M47 0L51.7 14.3C56.3 28.7 65.7 57.3 70.5 85.8C75.3 114.3 75.7 142.7 74.2 171.2C72.7 199.7 69.3 228.3 66.3 257C63.3 285.7 60.7 314.3 62.2 343C63.7 371.7 69.3 400.3 69.7 428.8C70 457.3 65 485.7 59.8 514.2C54.7 542.7 49.3 571.3 46.7 585.7L44 600L0 600L0 585.7C0 571.3 0 542.7 0 514.2C0 485.7 0 457.3 0 428.8C0 400.3 0 371.7 0 343C0 314.3 0 285.7 0 257C0 228.3 0 199.7 0 171.2C0 142.7 0 114.3 0 85.8C0 57.3 0 28.7 0 14.3L0 0Z" fill="#f6e049"></path><path d="M19 0L22.5 14.3C26 28.7 33 57.3 37.3 85.8C41.7 114.3 43.3 142.7 43.2 171.2C43 199.7 41 228.3 39.5 257C38 285.7 37 314.3 37.2 343C37.3 371.7 38.7 400.3 40.2 428.8C41.7 457.3 43.3 485.7 43.5 514.2C43.7 542.7 42.3 571.3 41.7 585.7L41 600L0 600L0 585.7C0 571.3 0 542.7 0 514.2C0 485.7 0 457.3 0 428.8C0 400.3 0 371.7 0 343C0 314.3 0 285.7 0 257C0 228.3 0 199.7 0 171.2C0 142.7 0 114.3 0 85.8C0 57.3 0 28.7 0 14.3L0 0Z" fill="#aac6fc"></path></svg>